<?xml version="1.0" encoding="utf-8"?>
<!-- Generator: Adobe Illustrator 21.0.0, SVG Export Plug-In . SVG Version: 6.00 Build 0)  -->
<svg version="1.1" id="Layer_1" xmlns="http://www.w3.org/2000/svg" xmlns:xlink="http://www.w3.org/1999/xlink" x="0px" y="0px"
	 viewBox="0 0 100 100" style="enable-background:new 0 0 100 100;" xml:space="preserve">
<style type="text/css">
	.st0{fill:#69BFB9;}
	.st1{fill:#FFFFFF;}
</style>
<g>
	<path class="st0" d="M90.051,51.697c0.336-1.205,0.574-2.448,0.574-3.76c0-7.767-6.296-14.062-14.062-14.062
		c-0.879,0-1.733,0.104-2.57,0.259C70.648,21.403,59.097,12,45.312,12c-16.4,0-29.688,13.288-29.688,29.688
		c0,0.827,0.058,1.639,0.122,2.447C6.653,46.787,0,55.173,0,65.125C0,77.207,9.793,87,21.875,87H81.25
		C91.607,87,100,78.608,100,68.25C100,61.075,95.969,54.85,90.051,51.697z"/>
	<path class="st1" d="M67.328,41.33c-1.831-1.831-5.032-1.599-6.867,0.235L45.154,56.873l-6-5.997
		c-1.828-1.834-4.978-2.011-6.808-0.177c-1.834,1.831-1.486,5.151,0.348,6.982l9.143,9.143c1.831,1.831,4.8,1.831,6.634,0
		l18.948-18.951C69.25,46.042,69.162,43.162,67.328,41.33z"/>
</g>
</svg>
