<?xml version="1.0" encoding="utf-8"?>
<!-- Generator: Adobe Illustrator 21.0.0, SVG Export Plug-In . SVG Version: 6.00 Build 0)  -->
<svg version="1.1" id="Layer_1" xmlns="http://www.w3.org/2000/svg" xmlns:xlink="http://www.w3.org/1999/xlink" x="0px" y="0px"
	 viewBox="0 0 100 100" style="enable-background:new 0 0 100 100;" xml:space="preserve">
<style type="text/css">
	.st0{fill:#08E8DE;}
	.st1{fill:#FFFFFF;}
</style>
<g>
	<path class="st0" d="M90.1,51.7c0.3-1.2,0.6-2.4,0.6-3.8c0-7.8-6.3-14.1-14.1-14.1c-0.9,0-1.7,0.1-2.6,0.3
		C70.6,21.4,59.1,12,45.3,12c-16.4,0-29.7,13.3-29.7,29.7c0,0.8,0.1,1.6,0.1,2.4C6.7,46.8,0,55.2,0,65.1C0,77.2,9.8,87,21.9,87h59.4
		c10.4,0,18.8-8.4,18.8-18.8C100,61.1,96,54.8,90.1,51.7z"/>
	<path class="st1" d="M67.3,41.3c-1.8-1.8-5-1.6-6.9,0.2L45.2,56.9l-6-6c-1.8-1.8-5-2-6.8-0.2c-1.8,1.8-1.5,5.2,0.3,7l9.1,9.1
		c1.8,1.8,4.8,1.8,6.6,0l18.9-19C69.2,46,69.2,43.2,67.3,41.3z"/>
</g>
</svg>
