<?xml version="1.0" encoding="utf-8"?>
<!-- Generator: Adobe Illustrator 21.0.0, SVG Export Plug-In . SVG Version: 6.00 Build 0)  -->
<svg version="1.1" id="Layer_1" xmlns="http://www.w3.org/2000/svg" xmlns:xlink="http://www.w3.org/1999/xlink" x="0px" y="0px"
	 viewBox="0 0 100 100" style="enable-background:new 0 0 100 100;" xml:space="preserve">
<style type="text/css">
	.st0{fill:#08E8DE;}
	.st1{fill:#FDFDFE;}
	.st2{fill:#444955;}
	.st3{opacity:0.3;fill:#08E8DE;enable-background:new    ;}
	.st4{fill:#FEFFFF;}
</style>
<g>
	<path class="st0" d="M100,68.8c0,3.5-2.8,6.2-6.2,6.2H6.2C2.8,75,0,72.2,0,68.8V6.2C0,2.8,2.8,0,6.2,0h87.5c3.5,0,6.2,2.8,6.2,6.2
		V68.8z"/>
	<rect x="6.2" y="6.2" class="st1" width="87.5" height="56.2"/>
	<rect x="37.5" y="75" class="st2" width="25" height="18.8"/>
	<rect x="37.5" y="75" class="st3" width="25" height="18.8"/>
	<path class="st0" d="M81.2,96.9c0,1.7-1.4,3.1-3.1,3.1H21.9c-1.7,0-3.1-1.4-3.1-3.1l0,0c0-1.7,1.4-3.1,3.1-3.1h56.2
		C79.9,93.8,81.2,95.1,81.2,96.9L81.2,96.9z"/>
	<circle class="st4" cx="50" cy="68.8" r="3.1"/>
</g>
</svg>
