<?xml version="1.0" encoding="utf-8"?>
<!-- Generator: Adobe Illustrator 21.0.0, SVG Export Plug-In . SVG Version: 6.00 Build 0)  -->
<svg version="1.1" id="Layer_1" xmlns="http://www.w3.org/2000/svg" xmlns:xlink="http://www.w3.org/1999/xlink" x="0px" y="0px"
	 viewBox="0 0 100 100" style="enable-background:new 0 0 100 100;" xml:space="preserve">
<style type="text/css">
	.st0{opacity:0.3;}
	.st1{fill:#69BFB9;}
	.st2{opacity:0.15;fill:#010101;}
	.st3{opacity:0.3;fill:#FCAF17;}
	.st4{opacity:0.1;fill:#010101;}
</style>
<g>
	<g class="st0">
		<path class="st1" d="M53.516,12.647c0,0-4.568,0.195-4.333,3.564c0.232,3.372,5.02,2.643,5.02,2.643
			c5.466-0.604,11.139,1.178,15.329,5.368c4.187,4.187,5.969,9.863,5.365,15.329c0,0-0.671,4.419,2.335,5.008
			c3.003,0.586,3.876-4.321,3.876-4.321c0.802-7.282-1.572-14.85-7.156-20.435C68.366,14.218,60.797,11.841,53.516,12.647z"/>
		<path class="st1" d="M82.788,10.962C74.411,2.585,63.058-0.977,52.133,0.229c0,0-4.477,0.461-4.242,3.553
			c0.235,3.091,4.932,2.658,4.932,2.658c9.107-1.007,18.567,1.963,25.546,8.945c6.982,6.979,9.952,16.44,8.945,25.546
			c0,0-0.519,5.066,2.518,5.255c3.04,0.189,3.69-4.565,3.69-4.565C94.73,30.695,91.165,19.339,82.788,10.962z"/>
	</g>
	<path class="st1" d="M25,0C5.475,19.528,4.492,50.204,24.02,69.733c19.525,19.525,50.205,18.542,69.73-0.983L25,0z"/>
	<path class="st2" d="M79.565,54.565C62.277,68.741,39.56,72.424,19.849,64.923c1.278,1.657,2.64,3.277,4.172,4.81
		c19.525,19.525,50.205,18.542,69.73-0.983L79.565,54.565z"/>
	<path class="st1" d="M43.75,87.5H37.5l-1.492-8.948c-4.288-2.231-8.334-5.167-11.988-8.819c-2.786-2.786-5.106-5.817-7.062-8.987
		L12.5,87.5H6.25C2.798,87.5,0,90.298,0,93.75V100h50v-6.25C50,90.298,47.202,87.5,43.75,87.5z"/>
	<path class="st3" d="M24.02,69.733c-2.786-2.786-5.106-5.817-7.062-8.987L12.5,87.5h25l-1.492-8.948
		C31.72,76.322,27.673,73.386,24.02,69.733z"/>
	<path class="st4" d="M32.126,76.263c-0.394-0.253-0.781-0.522-1.169-0.79c-0.861-0.592-1.703-1.218-2.533-1.871
		c-0.357-0.281-0.717-0.555-1.068-0.848c-1.138-0.952-2.258-1.944-3.336-3.021c-1.376-1.377-2.621-2.82-3.796-4.297
		c-0.064-0.086-0.122-0.171-0.186-0.257c-1.12-1.431-2.136-2.908-3.07-4.422l-0.009-0.012l-0.748,4.495
		c1.663,2.334,3.494,4.596,5.6,6.702c4.373,4.373,9.399,7.809,14.816,10.327l-0.619-3.717c-0.055-0.03-0.11-0.064-0.165-0.095
		c-0.232-0.122-0.455-0.265-0.687-0.391C34.131,77.506,33.121,76.908,32.126,76.263z"/>
</g>
</svg>
